<?xml version="1.0" standalone="no"?>
<!DOCTYPE svg PUBLIC "-//W3C//DTD SVG 20010904//EN"
 "http://www.w3.org/TR/2001/REC-SVG-20010904/DTD/svg10.dtd">
<svg version="1.0" xmlns="http://www.w3.org/2000/svg"
 width="300.000000pt" height="300.000000pt" viewBox="0 0 300.000000 300.000000"
 preserveAspectRatio="xMidYMid meet">
<metadata>
Created by potrace 1.10, written by Peter Selinger 2001-2011
</metadata>
<g transform="translate(0.000000,300.000000) scale(0.100000,-0.100000)"
fill="#000000" stroke="none">
<path d="M918 2684 c-79 -19 -126 -44 -190 -103 -73 -67 -110 -147 -116 -253
l-5 -78 115 0 115 0 72 -159 73 -158 -57 -54 c-123 -116 -222 -289 -272 -474
-27 -99 -27 -102 -27 -455 l-1 -356 38 -76 c57 -117 146 -186 270 -208 36 -7
254 -10 604 -8 547 3 548 3 605 26 111 45 200 151 233 277 21 83 21 510 -1
666 -34 243 -128 443 -281 596 -58 58 -62 66 -51 86 7 12 40 83 74 157 l62
135 114 3 115 3 -5 77 c-7 111 -34 175 -101 242 -62 61 -116 91 -206 115 -83
21 -1088 21 -1177 -1z m1210 -41 c132 -47 225 -158 239 -283 7 -70 11 -67
-105 -73 -65 -3 -87 -8 -102 -23 -18 -17 -137 -267 -154 -321 -6 -18 5 -35 56
-90 136 -145 204 -270 260 -475 22 -79 23 -100 23 -428 l0 -345 -31 -66 c-36
-75 -87 -130 -159 -168 l-50 -26 -579 -3 c-643 -3 -638 -4 -728 63 -59 44
-113 123 -132 195 -26 101 -20 562 9 745 22 129 117 342 190 421 5 7 40 44 78
83 37 39 67 78 67 87 0 18 -8 36 -125 287 -26 56 -53 65 -192 67 -50 0 -55 15
-37 100 19 86 48 131 119 188 75 60 147 80 291 81 71 1 129 3 130 4 1 1 204 0
451 -3 304 -4 459 -9 481 -17z"/>
<path d="M978 2579 c-99 -14 -187 -73 -221 -147 -9 -19 -7 -27 10 -43 20 -20
30 -21 742 -21 665 0 723 1 741 17 15 13 17 22 9 44 -13 36 -73 94 -129 123
-42 22 -59 23 -300 30 -325 9 -778 7 -852 -3z m1151 -64 c48 -26 111 -87 111
-107 0 -5 -328 -8 -730 -8 -556 0 -730 3 -730 12 0 6 21 32 48 58 84 81 69 79
697 77 l550 -2 54 -30z"/>
<path d="M1034 2280 c-49 -11 -57 -19 -51 -56 9 -52 112 -261 136 -273 28 -15
753 -16 781 -1 19 10 88 144 125 243 18 48 18 48 -4 70 -22 22 -22 22 -489 23
-257 1 -481 -2 -498 -6z m963 -72 c-11 -24 -39 -86 -63 -138 l-42 -95 -381 -3
-382 -2 -36 77 c-19 43 -48 106 -64 141 l-28 62 509 0 508 0 -21 -42z"/>
<path d="M1147 1842 c-15 -16 -17 -46 -17 -212 l0 -193 35 -72 c42 -87 101
-145 193 -188 59 -27 77 -31 152 -31 74 0 94 5 152 31 83 39 153 107 193 188
30 60 30 61 33 259 3 176 1 200 -14 217 -16 18 -36 19 -364 19 -323 0 -348 -1
-363 -18z m711 -205 l-3 -192 -33 -67 c-40 -82 -111 -149 -190 -178 -77 -29
-205 -25 -271 9 -65 34 -137 106 -168 170 -27 55 -28 61 -31 254 l-4 197 352
0 352 0 -4 -193z"/>
<path d="M953 1738 c-104 -112 -175 -270 -208 -463 -22 -133 -22 -593 2 -664
26 -81 111 -166 184 -184 14 -4 276 -7 581 -8 540 0 557 0 596 20 60 31 95 64
127 123 l30 53 0 335 c0 358 2 334 -54 517 -18 62 -103 211 -143 252 -33 33
-43 39 -59 31 -33 -18 -39 -46 -39 -176 0 -167 -26 -247 -113 -351 -53 -63
-87 -87 -179 -125 -64 -26 -85 -30 -173 -30 -78 0 -112 4 -155 21 -112 43
-203 126 -258 236 -32 64 -41 113 -43 230 -2 165 -14 214 -55 215 -5 0 -24
-15 -41 -32z m80 -364 c48 -129 129 -226 238 -283 81 -44 148 -61 240 -61 211
0 397 132 470 336 18 50 22 83 23 216 0 87 4 158 7 158 12 0 106 -146 139
-215 18 -38 44 -113 58 -165 24 -89 25 -113 30 -392 3 -261 2 -303 -13 -348
-22 -67 -67 -117 -130 -146 l-50 -24 -540 1 c-581 0 -580 0 -649 53 -19 14
-47 52 -63 83 -28 57 -28 60 -31 273 -7 422 41 630 190 825 l53 70 6 -170 c4
-114 11 -183 22 -211z"/>
<path d="M1180 750 l0 -150 304 0 304 0 -33 33 c-65 65 -66 168 -2 235 l31 32
-302 0 -302 0 0 -150z m502 85 c-5 -36 -5 -131 0 -165 l3 -25 -230 0 -230 0
-3 104 c-2 77 1 107 10 113 7 4 112 7 233 5 l220 -2 -3 -30z"/>
<path d="M1814 842 c-111 -89 8 -260 126 -180 60 41 66 119 14 171 -21 22 -36
27 -73 27 -28 0 -54 -7 -67 -18z m99 -23 c30 -16 37 -28 37 -71 0 -27 -6 -41
-22 -52 -45 -32 -113 -9 -119 39 -10 70 46 114 104 84z"/>
</g>
</svg>
